<?xml version="1.0" encoding="us-ascii" standalone="no"?><svg xmlns="http://www.w3.org/2000/svg" xmlns:xlink="http://www.w3.org/1999/xlink" contentStyleType="text/css" height="794px" preserveAspectRatio="none" style="width:895px;height:794px;background:#FFFFFF;" version="1.1" viewBox="0 0 895 794" width="895px" zoomAndPan="magnify"><defs/><g><rect fill="none" height="134.5527" style="stroke:#000000;stroke-width:1.5;" width="717" x="10" y="98.4883"/><rect fill="none" height="374.7266" style="stroke:#000000;stroke-width:1.5;" width="879" x="10" y="247.041"/><rect fill="none" height="134.5527" style="stroke:#000000;stroke-width:1.5;" width="717" x="10" y="635.7676"/><line style="stroke:#181818;stroke-width:0.5;stroke-dasharray:5.0,5.0;" x1="45" x2="45" y1="81.4883" y2="787.3203"/><line style="stroke:#181818;stroke-width:0.5;stroke-dasharray:5.0,5.0;" x1="324" x2="324" y1="81.4883" y2="787.3203"/><line style="stroke:#181818;stroke-width:0.5;stroke-dasharray:5.0,5.0;" x1="694" x2="694" y1="81.4883" y2="787.3203"/><line style="stroke:#181818;stroke-width:0.5;stroke-dasharray:5.0,5.0;" x1="803" x2="803" y1="81.4883" y2="787.3203"/><text fill="#000000" font-family="sans-serif" font-size="14" lengthAdjust="spacing" textLength="45" x="20" y="78.5352">Admin</text><ellipse cx="45.5" cy="13.5" fill="#E2E2F0" rx="8" ry="8" style="stroke:#181818;stroke-width:0.5;"/><path d="M45.5,21.5 L45.5,48.5 M32.5,29.5 L58.5,29.5 M45.5,48.5 L32.5,63.5 M45.5,48.5 L58.5,63.5 " fill="none" style="stroke:#181818;stroke-width:0.5;"/><rect fill="#E2E2F0" height="30.4883" rx="2.5" ry="2.5" style="stroke:#181818;stroke-width:0.5;" width="45" x="302" y="50"/><text fill="#000000" font-family="sans-serif" font-size="14" lengthAdjust="spacing" textLength="31" x="309" y="70.5352">CRM</text><rect fill="#E2E2F0" height="30.4883" rx="2.5" ry="2.5" style="stroke:#181818;stroke-width:0.5;" width="45" x="672" y="50"/><text fill="#000000" font-family="sans-serif" font-size="14" lengthAdjust="spacing" textLength="31" x="679" y="70.5352">Nuts</text><rect fill="#E2E2F0" height="30.4883" rx="2.5" ry="2.5" style="stroke:#181818;stroke-width:0.5;" width="152" x="727" y="50"/><text fill="#000000" font-family="sans-serif" font-size="14" lengthAdjust="spacing" textLength="138" x="734" y="70.5352">X509CredentialTool</text><path d="M10,98.4883 L216,98.4883 L216,105.7988 L206,115.7988 L10,115.7988 L10,98.4883 " fill="#EEEEEE" style="stroke:#000000;stroke-width:1.5;"/><rect fill="none" height="134.5527" style="stroke:#000000;stroke-width:1.5;" width="717" x="10" y="98.4883"/><text fill="#000000" font-family="sans-serif" font-size="13" font-weight="bold" lengthAdjust="spacing" textLength="161" x="25" y="112.0566">Opt: Create new subject</text><polygon fill="#181818" points="312.5,133.1094,322.5,137.1094,312.5,141.1094,316.5,137.1094" style="stroke:#181818;stroke-width:1.0;"/><line style="stroke:#181818;stroke-width:1.0;" x1="45.5" x2="318.5" y1="137.1094" y2="137.1094"/><text fill="#000000" font-family="sans-serif" font-size="13" font-weight="bold" lengthAdjust="spacing" textLength="9" x="52.5" y="132.3672">1</text><text fill="#000000" font-family="sans-serif" font-size="13" lengthAdjust="spacing" textLength="77" x="65.5" y="132.3672">New subject</text><polygon fill="#181818" points="682.5,162.4199,692.5,166.4199,682.5,170.4199,686.5,166.4199" style="stroke:#181818;stroke-width:1.0;"/><line style="stroke:#181818;stroke-width:1.0;" x1="324.5" x2="688.5" y1="166.4199" y2="166.4199"/><text fill="#000000" font-family="sans-serif" font-size="13" font-weight="bold" lengthAdjust="spacing" textLength="9" x="331.5" y="161.6777">2</text><text fill="#000000" font-family="sans-serif" font-size="13" lengthAdjust="spacing" textLength="193" x="344.5" y="161.6777">POST /internal/vdr/v2/subject</text><polygon fill="#181818" points="335.5,191.7305,325.5,195.7305,335.5,199.7305,331.5,195.7305" style="stroke:#181818;stroke-width:1.0;"/><line style="stroke:#181818;stroke-width:1.0;stroke-dasharray:2.0,2.0;" x1="329.5" x2="693.5" y1="195.7305" y2="195.7305"/><text fill="#000000" font-family="sans-serif" font-size="13" font-weight="bold" lengthAdjust="spacing" textLength="9" x="341.5" y="190.9883">3</text><text fill="#000000" font-family="sans-serif" font-size="13" lengthAdjust="spacing" textLength="60" x="354.5" y="190.9883">subjectID</text><polygon fill="#181818" points="56.5,221.041,46.5,225.041,56.5,229.041,52.5,225.041" style="stroke:#181818;stroke-width:1.0;"/><line style="stroke:#181818;stroke-width:1.0;stroke-dasharray:2.0,2.0;" x1="50.5" x2="323.5" y1="225.041" y2="225.041"/><text fill="#000000" font-family="sans-serif" font-size="13" font-weight="bold" lengthAdjust="spacing" textLength="9" x="62.5" y="220.2988">4</text><text fill="#000000" font-family="sans-serif" font-size="13" lengthAdjust="spacing" textLength="60" x="75.5" y="220.2988">subjectID</text><path d="M10,247.041 L339,247.041 L339,254.3516 L329,264.3516 L10,264.3516 L10,247.041 " fill="#EEEEEE" style="stroke:#000000;stroke-width:1.5;"/><rect fill="none" height="374.7266" style="stroke:#000000;stroke-width:1.5;" width="879" x="10" y="247.041"/><text fill="#000000" font-family="sans-serif" font-size="13" font-weight="bold" lengthAdjust="spacing" textLength="284" x="25" y="260.6094">Opt: Add X509Credential to subject wallet</text><polygon fill="#181818" points="312.5,281.6621,322.5,285.6621,312.5,289.6621,316.5,285.6621" style="stroke:#181818;stroke-width:1.0;"/><line style="stroke:#181818;stroke-width:1.0;" x1="45.5" x2="318.5" y1="285.6621" y2="285.6621"/><text fill="#000000" font-family="sans-serif" font-size="13" font-weight="bold" lengthAdjust="spacing" textLength="9" x="52.5" y="280.9199">5</text><text fill="#000000" font-family="sans-serif" font-size="13" lengthAdjust="spacing" textLength="125" x="65.5" y="280.9199">Add X509Credential</text><polygon fill="#181818" points="682.5,326.2832,692.5,330.2832,682.5,334.2832,686.5,330.2832" style="stroke:#181818;stroke-width:1.0;"/><line style="stroke:#181818;stroke-width:1.0;" x1="324.5" x2="688.5" y1="330.2832" y2="330.2832"/><text fill="#000000" font-family="sans-serif" font-size="13" font-weight="bold" lengthAdjust="spacing" textLength="9" x="331.5" y="317.8857">6</text><text fill="#000000" font-family="sans-serif" font-size="13" lengthAdjust="spacing" textLength="144" x="344.5" y="310.2305">List all DIDs of subject</text><text fill="#000000" font-family="sans-serif" font-size="13" lengthAdjust="spacing" textLength="260" x="344.5" y="325.541">GET /internal/vdr/v2/subject/{subjectID}</text><polygon fill="#181818" points="335.5,355.5938,325.5,359.5938,335.5,363.5938,331.5,359.5938" style="stroke:#181818;stroke-width:1.0;"/><line style="stroke:#181818;stroke-width:1.0;stroke-dasharray:2.0,2.0;" x1="329.5" x2="693.5" y1="359.5938" y2="359.5938"/><text fill="#000000" font-family="sans-serif" font-size="13" font-weight="bold" lengthAdjust="spacing" textLength="9" x="341.5" y="354.8516">7</text><text fill="#000000" font-family="sans-serif" font-size="13" lengthAdjust="spacing" textLength="161" x="354.5" y="354.8516">filter result for did:web:...</text><line style="stroke:#181818;stroke-width:1.0;" x1="324.5" x2="366.5" y1="413.9043" y2="413.9043"/><line style="stroke:#181818;stroke-width:1.0;" x1="366.5" x2="366.5" y1="413.9043" y2="426.9043"/><line style="stroke:#181818;stroke-width:1.0;" x1="325.5" x2="366.5" y1="426.9043" y2="426.9043"/><polygon fill="#181818" points="335.5,422.9043,325.5,426.9043,335.5,430.9043,331.5,426.9043" style="stroke:#181818;stroke-width:1.0;"/><text fill="#000000" font-family="sans-serif" font-size="13" font-weight="bold" lengthAdjust="spacing" textLength="9" x="331.5" y="409.1621">8</text><text fill="#000000" font-family="sans-serif" font-size="13" lengthAdjust="spacing" textLength="233" x="344.5" y="409.1621">Fetch UZI server cert+key for subject</text><polygon fill="#181818" points="791,452.2148,801,456.2148,791,460.2148,795,456.2148" style="stroke:#181818;stroke-width:1.0;"/><line style="stroke:#181818;stroke-width:1.0;" x1="324.5" x2="797" y1="456.2148" y2="456.2148"/><text fill="#000000" font-family="sans-serif" font-size="13" font-weight="bold" lengthAdjust="spacing" textLength="9" x="331.5" y="451.4727">9</text><text fill="#000000" font-family="sans-serif" font-size="13" lengthAdjust="spacing" textLength="351" x="344.5" y="451.4727">Generate X509Credential for subject's did:web identifier</text><polygon fill="#181818" points="335.5,481.5254,325.5,485.5254,335.5,489.5254,331.5,485.5254" style="stroke:#181818;stroke-width:1.0;"/><line style="stroke:#181818;stroke-width:1.0;stroke-dasharray:2.0,2.0;" x1="329.5" x2="802" y1="485.5254" y2="485.5254"/><text fill="#000000" font-family="sans-serif" font-size="13" font-weight="bold" lengthAdjust="spacing" textLength="18" x="341.5" y="480.7832">10</text><text fill="#000000" font-family="sans-serif" font-size="13" lengthAdjust="spacing" textLength="96" x="363.5" y="480.7832">X509Credential</text><polygon fill="#181818" points="682.5,551.1465,692.5,555.1465,682.5,559.1465,686.5,555.1465" style="stroke:#181818;stroke-width:1.0;"/><line style="stroke:#181818;stroke-width:1.0;" x1="324.5" x2="688.5" y1="555.1465" y2="555.1465"/><text fill="#000000" font-family="sans-serif" font-size="13" font-weight="bold" lengthAdjust="spacing" textLength="18" x="331.5" y="542.749">11</text><text fill="#000000" font-family="sans-serif" font-size="13" lengthAdjust="spacing" textLength="144" x="353.5" y="535.0938">Upload X509Credential</text><text fill="#000000" font-family="sans-serif" font-size="13" lengthAdjust="spacing" textLength="282" x="353.5" y="550.4043">POST /internal/vcr/v2/holder/{subjectID}/vc</text><polygon fill="#181818" points="335.5,580.457,325.5,584.457,335.5,588.457,331.5,584.457" style="stroke:#181818;stroke-width:1.0;"/><line style="stroke:#181818;stroke-width:1.0;stroke-dasharray:2.0,2.0;" x1="329.5" x2="693.5" y1="584.457" y2="584.457"/><text fill="#000000" font-family="sans-serif" font-size="13" font-weight="bold" lengthAdjust="spacing" textLength="18" x="341.5" y="579.7148">12</text><text fill="#000000" font-family="sans-serif" font-size="13" lengthAdjust="spacing" textLength="24" x="363.5" y="579.7148">204</text><polygon fill="#181818" points="56.5,609.7676,46.5,613.7676,56.5,617.7676,52.5,613.7676" style="stroke:#181818;stroke-width:1.0;"/><line style="stroke:#181818;stroke-width:1.0;stroke-dasharray:2.0,2.0;" x1="50.5" x2="323.5" y1="613.7676" y2="613.7676"/><text fill="#000000" font-family="sans-serif" font-size="13" font-weight="bold" lengthAdjust="spacing" textLength="18" x="62.5" y="609.0254">13</text><text fill="#000000" font-family="sans-serif" font-size="13" lengthAdjust="spacing" textLength="24" x="84.5" y="609.0254">200</text><path d="M10,635.7676 L306,635.7676 L306,643.0781 L296,653.0781 L10,653.0781 L10,635.7676 " fill="#EEEEEE" style="stroke:#000000;stroke-width:1.5;"/><rect fill="none" height="134.5527" style="stroke:#000000;stroke-width:1.5;" width="717" x="10" y="635.7676"/><text fill="#000000" font-family="sans-serif" font-size="13" font-weight="bold" lengthAdjust="spacing" textLength="251" x="25" y="649.3359">Register subject on discovery service</text><polygon fill="#181818" points="312.5,670.3887,322.5,674.3887,312.5,678.3887,316.5,674.3887" style="stroke:#181818;stroke-width:1.0;"/><line style="stroke:#181818;stroke-width:1.0;" x1="45.5" x2="318.5" y1="674.3887" y2="674.3887"/><text fill="#000000" font-family="sans-serif" font-size="13" font-weight="bold" lengthAdjust="spacing" textLength="18" x="52.5" y="669.6465">14</text><text fill="#000000" font-family="sans-serif" font-size="13" lengthAdjust="spacing" textLength="233" x="74.5" y="669.6465">Register subject on discovery service</text><polygon fill="#181818" points="682.5,699.6992,692.5,703.6992,682.5,707.6992,686.5,703.6992" style="stroke:#181818;stroke-width:1.0;"/><line style="stroke:#181818;stroke-width:1.0;" x1="324.5" x2="688.5" y1="703.6992" y2="703.6992"/><text fill="#000000" font-family="sans-serif" font-size="13" font-weight="bold" lengthAdjust="spacing" textLength="18" x="331.5" y="698.957">15</text><text fill="#000000" font-family="sans-serif" font-size="13" lengthAdjust="spacing" textLength="324" x="353.5" y="698.957">POST/internal/discovery/v1/{serviceID}/{subjectID}</text><polygon fill="#181818" points="335.5,729.0098,325.5,733.0098,335.5,737.0098,331.5,733.0098" style="stroke:#181818;stroke-width:1.0;"/><line style="stroke:#181818;stroke-width:1.0;stroke-dasharray:2.0,2.0;" x1="329.5" x2="693.5" y1="733.0098" y2="733.0098"/><text fill="#000000" font-family="sans-serif" font-size="13" font-weight="bold" lengthAdjust="spacing" textLength="18" x="341.5" y="728.2676">16</text><text fill="#000000" font-family="sans-serif" font-size="13" lengthAdjust="spacing" textLength="24" x="363.5" y="728.2676">200</text><polygon fill="#181818" points="56.5,758.3203,46.5,762.3203,56.5,766.3203,52.5,762.3203" style="stroke:#181818;stroke-width:1.0;"/><line style="stroke:#181818;stroke-width:1.0;stroke-dasharray:2.0,2.0;" x1="50.5" x2="323.5" y1="762.3203" y2="762.3203"/><text fill="#000000" font-family="sans-serif" font-size="13" font-weight="bold" lengthAdjust="spacing" textLength="18" x="62.5" y="757.5781">17</text><text fill="#000000" font-family="sans-serif" font-size="13" lengthAdjust="spacing" textLength="24" x="84.5" y="757.5781">200</text><!--SRC=[ZP9DJyCm38Rl-HM-SK1RnmG7AeI4Da2JO4DyI0ZjaZNU5WX9bQGRYF7VSS8eNLSqUcZLEA_zFhRdKY1CZV4JyyPuuOqkNYTe6UEPDnREnAlKBEVMoqpcN7letLvl_0yBxpOE7eywnpsB0hMNNDqReu0xyFHbZCsiAN8OvJu5kiCzWiObk6BoZ9bdG4-i2AtJK0XI6DR2uPI2eMeADwExUqYazcWrLyb2s6JHJUhNJrgjzVrrPD2lL0fHkbKDeXOGZMxuFHEYnaPGFofOSgLmcw19LkSWoYlfF506w0_w3ioqJ3lMb-T_8oOVfUdFBLnAEvMAT63H5ShJb2q8AT8bJj9sknq5yRLQhLZLLFHzWJwRmyFJ01pQ1MN9qFhz5toFUHf64YQSmYLgj66kjLPLH7lknmR869vAMhYg_UzKjQurMbs3FkJAyAtnZ7LzGRBOlRbH0csrUHHfM9Tkvx1fKRgTplQAtEACPeWb91XDb2uprBhts4APOSDw_5-tIHp8Vi5AHR8u8AvlLU3QiI01PIVX5m00]--></g></svg>