<?xml version="1.0" encoding="us-ascii" standalone="no"?><svg xmlns="http://www.w3.org/2000/svg" xmlns:xlink="http://www.w3.org/1999/xlink" contentStyleType="text/css" height="1180px" preserveAspectRatio="none" style="width:1654px;height:1180px;background:#FFFFFF;" version="1.1" viewBox="0 0 1654 1180" width="1654px" zoomAndPan="magnify"><defs/><g><rect fill="#DDDDDD" height="1161.3574" style="stroke:#181818;stroke-width:0.5;" width="809" x="21" y="6"/><text fill="#000000" font-family="sans-serif" font-size="13" font-weight="bold" lengthAdjust="spacing" textLength="21" x="415" y="18.5684">HIS</text><rect fill="#DDDDDD" height="1161.3574" style="stroke:#181818;stroke-width:0.5;" width="454" x="1076" y="6"/><text fill="#000000" font-family="sans-serif" font-size="13" font-weight="bold" lengthAdjust="spacing" textLength="27" x="1289.5" y="18.5684">VVT</text><rect fill="#FFFFFF" height="892.0059" style="stroke:#181818;stroke-width:1.0;" width="10" x="333.5" y="263.3516"/><rect fill="#FFFFFF" height="110.5527" style="stroke:#181818;stroke-width:1.0;" width="10" x="798.5" y="350.2832"/><rect fill="#FFFFFF" height="93.9316" style="stroke:#181818;stroke-width:1.0;" width="10" x="798.5" y="530.457"/><rect fill="#FFFFFF" height="29.3105" style="stroke:#181818;stroke-width:1.0;" width="10" x="1097.5" y="758.6309"/><rect fill="#FFFFFF" height="29.3105" style="stroke:#181818;stroke-width:1.0;" width="10" x="1097.5" y="1018.1152"/><rect fill="#FFFFFF" height="145.5527" style="stroke:#181818;stroke-width:1.0;" width="10" x="1500.5" y="714.0098"/><rect fill="#FFFFFF" height="145.5527" style="stroke:#181818;stroke-width:1.0;" width="10" x="1500.5" y="973.4941"/><rect fill="none" height="192.1738" style="stroke:#000000;stroke-width:1.5;" width="1327" x="310.5" y="934.873"/><line style="stroke:#181818;stroke-width:0.5;stroke-dasharray:5.0,5.0;" x1="43" x2="43" y1="101.7988" y2="1173.3574"/><line style="stroke:#181818;stroke-width:0.5;stroke-dasharray:5.0,5.0;" x1="338.5" x2="338.5" y1="101.7988" y2="1173.3574"/><line style="stroke:#181818;stroke-width:0.5;stroke-dasharray:5.0,5.0;" x1="803" x2="803" y1="101.7988" y2="1173.3574"/><line style="stroke:#181818;stroke-width:0.5;stroke-dasharray:5.0,5.0;" x1="1102" x2="1102" y1="101.7988" y2="1173.3574"/><line style="stroke:#181818;stroke-width:0.5;stroke-dasharray:5.0,5.0;" x1="1505" x2="1505" y1="101.7988" y2="1173.3574"/><text fill="#000000" font-family="sans-serif" font-size="14" lengthAdjust="spacing" textLength="31" x="25" y="98.8457">User</text><ellipse cx="43.5" cy="33.8105" fill="#E2E2F0" rx="8" ry="8" style="stroke:#181818;stroke-width:0.5;"/><path d="M43.5,41.8105 L43.5,68.8105 M30.5,49.8105 L56.5,49.8105 M43.5,68.8105 L30.5,83.8105 M43.5,68.8105 L56.5,83.8105 " fill="none" style="stroke:#181818;stroke-width:0.5;"/><rect fill="#E2E2F0" height="30.4883" rx="2.5" ry="2.5" style="stroke:#181818;stroke-width:0.5;" width="36" x="320.5" y="70.3105"/><text fill="#000000" font-family="sans-serif" font-size="14" lengthAdjust="spacing" textLength="22" x="327.5" y="90.8457">HIS</text><rect fill="#E2E2F0" height="30.4883" rx="2.5" ry="2.5" style="stroke:#181818;stroke-width:0.5;" width="45" x="781" y="70.3105"/><text fill="#000000" font-family="sans-serif" font-size="14" lengthAdjust="spacing" textLength="31" x="788" y="90.8457">Nuts</text><rect fill="#E2E2F0" height="30.4883" rx="2.5" ry="2.5" style="stroke:#181818;stroke-width:0.5;" width="45" x="1080" y="70.3105"/><text fill="#000000" font-family="sans-serif" font-size="14" lengthAdjust="spacing" textLength="31" x="1087" y="90.8457">Nuts</text><rect fill="#E2E2F0" height="30.4883" rx="2.5" ry="2.5" style="stroke:#181818;stroke-width:0.5;" width="41" x="1485" y="70.3105"/><text fill="#000000" font-family="sans-serif" font-size="14" lengthAdjust="spacing" textLength="27" x="1492" y="90.8457">Fhir</text><rect fill="#FFFFFF" height="892.0059" style="stroke:#181818;stroke-width:1.0;" width="10" x="333.5" y="263.3516"/><rect fill="#FFFFFF" height="110.5527" style="stroke:#181818;stroke-width:1.0;" width="10" x="798.5" y="350.2832"/><rect fill="#FFFFFF" height="93.9316" style="stroke:#181818;stroke-width:1.0;" width="10" x="798.5" y="530.457"/><rect fill="#FFFFFF" height="29.3105" style="stroke:#181818;stroke-width:1.0;" width="10" x="1097.5" y="758.6309"/><rect fill="#FFFFFF" height="29.3105" style="stroke:#181818;stroke-width:1.0;" width="10" x="1097.5" y="1018.1152"/><rect fill="#FFFFFF" height="145.5527" style="stroke:#181818;stroke-width:1.0;" width="10" x="1500.5" y="714.0098"/><rect fill="#FFFFFF" height="145.5527" style="stroke:#181818;stroke-width:1.0;" width="10" x="1500.5" y="973.4941"/><polygon fill="#181818" points="326.5,129.1094,336.5,133.1094,326.5,137.1094,330.5,133.1094" style="stroke:#181818;stroke-width:1.0;"/><line style="stroke:#181818;stroke-width:1.0;" x1="43.5" x2="332.5" y1="133.1094" y2="133.1094"/><text fill="#000000" font-family="sans-serif" font-size="13" font-weight="bold" lengthAdjust="spacing" textLength="9" x="50.5" y="128.3672">1</text><text fill="#000000" font-family="sans-serif" font-size="13" lengthAdjust="spacing" textLength="39" x="63.5" y="128.3672">Log in</text><line style="stroke:#181818;stroke-width:1.0;" x1="338.5" x2="380.5" y1="177.7305" y2="177.7305"/><line style="stroke:#181818;stroke-width:1.0;" x1="380.5" x2="380.5" y1="177.7305" y2="190.7305"/><line style="stroke:#181818;stroke-width:1.0;" x1="339.5" x2="380.5" y1="190.7305" y2="190.7305"/><polygon fill="#181818" points="349.5,186.7305,339.5,190.7305,349.5,194.7305,345.5,190.7305" style="stroke:#181818;stroke-width:1.0;"/><text fill="#000000" font-family="sans-serif" font-size="13" font-weight="bold" lengthAdjust="spacing" textLength="9" x="345.5" y="165.333">2</text><text fill="#000000" font-family="sans-serif" font-size="13" lengthAdjust="spacing" textLength="128" x="358.5" y="157.6777">Create User session,</text><text fill="#000000" font-family="sans-serif" font-size="13" lengthAdjust="spacing" textLength="337" x="358.5" y="172.9883">User info needed for NutsEmployeeCredential (step 7)</text><rect fill="#EEEEEE" height="3" style="stroke:#EEEEEE;stroke-width:1.0;" width="1647.5" x="0" y="219.3857"/><line style="stroke:#000000;stroke-width:1.0;" x1="0" x2="1647.5" y1="219.3857" y2="219.3857"/><line style="stroke:#000000;stroke-width:1.0;" x1="0" x2="1647.5" y1="222.3857" y2="222.3857"/><rect fill="#EEEEEE" height="23.3105" style="stroke:#000000;stroke-width:2.0;" width="159" x="744.25" y="208.7305"/><text fill="#000000" font-family="sans-serif" font-size="13" font-weight="bold" lengthAdjust="spacing" textLength="141" x="750.25" y="225.2988">Later in User session</text><polygon fill="#181818" points="321.5,259.3516,331.5,263.3516,321.5,267.3516,325.5,263.3516" style="stroke:#181818;stroke-width:1.0;"/><line style="stroke:#181818;stroke-width:1.0;" x1="43.5" x2="327.5" y1="263.3516" y2="263.3516"/><text fill="#000000" font-family="sans-serif" font-size="13" font-weight="bold" lengthAdjust="spacing" textLength="9" x="50.5" y="258.6094">3</text><text fill="#000000" font-family="sans-serif" font-size="13" lengthAdjust="spacing" textLength="258" x="63.5" y="258.6094">GP request information for Patient at VVT</text><line style="stroke:#181818;stroke-width:1.0;" x1="343.5" x2="385.5" y1="292.6621" y2="292.6621"/><line style="stroke:#181818;stroke-width:1.0;" x1="385.5" x2="385.5" y1="292.6621" y2="305.6621"/><line style="stroke:#181818;stroke-width:1.0;" x1="344.5" x2="385.5" y1="305.6621" y2="305.6621"/><polygon fill="#181818" points="354.5,301.6621,344.5,305.6621,354.5,309.6621,350.5,305.6621" style="stroke:#181818;stroke-width:1.0;"/><text fill="#000000" font-family="sans-serif" font-size="13" font-weight="bold" lengthAdjust="spacing" textLength="9" x="350.5" y="287.9199">4</text><text fill="#000000" font-family="sans-serif" font-size="13" lengthAdjust="spacing" textLength="372" x="363.5" y="287.9199">Resolve Patient BSN, and VVT_URA for patient if it is known</text><polygon fill="#181818" points="786.5,346.2832,796.5,350.2832,786.5,354.2832,790.5,350.2832" style="stroke:#181818;stroke-width:1.0;"/><line style="stroke:#181818;stroke-width:1.0;" x1="343.5" x2="792.5" y1="350.2832" y2="350.2832"/><text fill="#000000" font-family="sans-serif" font-size="13" font-weight="bold" lengthAdjust="spacing" textLength="9" x="350.5" y="337.8857">5</text><text fill="#000000" font-family="sans-serif" font-size="13" lengthAdjust="spacing" textLength="171" x="363.5" y="330.2305">Search for VVT in discovery</text><text fill="#000000" font-family="sans-serif" font-size="13" lengthAdjust="spacing" textLength="242" x="363.5" y="345.541">Get /internal/discovery/v1/{serviceID}</text><path d="M813,363.2832 L813,434.2832 L1177,434.2832 L1177,373.2832 L1167,363.2832 L813,363.2832 " fill="#FEFFDD" style="stroke:#181818;stroke-width:0.5;"/><path d="M1167,363.2832 L1167,373.2832 L1177,373.2832 L1167,363.2832 " fill="#FEFFDD" style="stroke:#181818;stroke-width:0.5;"/><text fill="#000000" font-family="sans-serif" font-size="13" lengthAdjust="spacing" textLength="242" x="819" y="380.8516">Exact search is up to the implementer.</text><text fill="#000000" font-family="sans-serif" font-size="13" lengthAdjust="spacing" textLength="108" x="819" y="396.1621">Possible options:</text><text fill="#000000" font-family="sans-serif" font-size="13" lengthAdjust="spacing" textLength="339" x="823" y="411.4727">- Return everything from the service and let User pick</text><text fill="#000000" font-family="sans-serif" font-size="13" lengthAdjust="spacing" textLength="308" x="823" y="426.7832">- Let Nuts-node filter on VVT_URA of the patient</text><polygon fill="#181818" points="354.5,456.8359,344.5,460.8359,354.5,464.8359,350.5,460.8359" style="stroke:#181818;stroke-width:1.0;"/><line style="stroke:#181818;stroke-width:1.0;stroke-dasharray:2.0,2.0;" x1="348.5" x2="802.5" y1="460.8359" y2="460.8359"/><text fill="#000000" font-family="sans-serif" font-size="13" font-weight="bold" lengthAdjust="spacing" textLength="9" x="360.5" y="456.0938">6</text><text fill="#000000" font-family="sans-serif" font-size="13" lengthAdjust="spacing" textLength="192" x="373.5" y="456.0938">Found VVT (authz_url, fhir_url)</text><polygon fill="#181818" points="786.5,526.457,796.5,530.457,786.5,534.457,790.5,530.457" style="stroke:#181818;stroke-width:1.0;"/><line style="stroke:#181818;stroke-width:1.0;" x1="343.5" x2="792.5" y1="530.457" y2="530.457"/><text fill="#000000" font-family="sans-serif" font-size="13" font-weight="bold" lengthAdjust="spacing" textLength="9" x="350.5" y="518.0596">7</text><text fill="#000000" font-family="sans-serif" font-size="13" lengthAdjust="spacing" textLength="107" x="363.5" y="510.4043">Get access token</text><text fill="#000000" font-family="sans-serif" font-size="13" lengthAdjust="spacing" textLength="423" x="363.5" y="525.7148">POST /internal/auth/v2/{subjectID}/request-service-access-token</text><polygon fill="#181818" points="819.5,555.7676,809.5,559.7676,819.5,563.7676,815.5,559.7676" style="stroke:#181818;stroke-width:1.0;"/><polygon fill="#181818" points="1090.5,555.7676,1100.5,559.7676,1090.5,563.7676,1094.5,559.7676" style="stroke:#181818;stroke-width:1.0;"/><line style="stroke:#181818;stroke-width:1.0;stroke-dasharray:2.0,2.0;" x1="813.5" x2="1096.5" y1="559.7676" y2="559.7676"/><text fill="#000000" font-family="sans-serif" font-size="13" font-weight="bold" lengthAdjust="spacing" textLength="9" x="825.5" y="555.0254">8</text><text fill="#000000" font-family="sans-serif" font-size="13" lengthAdjust="spacing" textLength="257" x="838.5" y="555.0254">nuts-nodes handle access token request</text><path d="M813,572.7676 L813,597.7676 L1148,597.7676 L1148,582.7676 L1138,572.7676 L813,572.7676 " fill="#FEFFDD" style="stroke:#181818;stroke-width:0.5;"/><path d="M1138,572.7676 L1138,582.7676 L1148,582.7676 L1138,572.7676 " fill="#FEFFDD" style="stroke:#181818;stroke-width:0.5;"/><text fill="#000000" font-family="sans-serif" font-size="13" lengthAdjust="spacing" textLength="314" x="819" y="590.3359">uses X509Credential and NutsEmployeeCredential</text><polygon fill="#181818" points="354.5,620.3887,344.5,624.3887,354.5,628.3887,350.5,624.3887" style="stroke:#181818;stroke-width:1.0;"/><line style="stroke:#181818;stroke-width:1.0;stroke-dasharray:2.0,2.0;" x1="348.5" x2="802.5" y1="624.3887" y2="624.3887"/><text fill="#000000" font-family="sans-serif" font-size="13" font-weight="bold" lengthAdjust="spacing" textLength="9" x="360.5" y="619.6465">9</text><text fill="#000000" font-family="sans-serif" font-size="13" lengthAdjust="spacing" textLength="84" x="373.5" y="619.6465">Access token</text><path d="M348,662.3887 L348,687.3887 L499,687.3887 L499,672.3887 L489,662.3887 L348,662.3887 " fill="#FEFFDD" style="stroke:#181818;stroke-width:0.5;"/><path d="M489,662.3887 L489,672.3887 L499,672.3887 L489,662.3887 " fill="#FEFFDD" style="stroke:#181818;stroke-width:0.5;"/><text fill="#000000" font-family="sans-serif" font-size="13" lengthAdjust="spacing" textLength="130" x="354" y="679.957">Search based on BSN</text><polygon fill="#181818" points="1488.5,710.0098,1498.5,714.0098,1488.5,718.0098,1492.5,714.0098" style="stroke:#181818;stroke-width:1.0;"/><line style="stroke:#181818;stroke-width:1.0;" x1="343.5" x2="1494.5" y1="714.0098" y2="714.0098"/><text fill="#000000" font-family="sans-serif" font-size="13" font-weight="bold" lengthAdjust="spacing" textLength="18" x="350.5" y="709.2676">10</text><text fill="#000000" font-family="sans-serif" font-size="13" lengthAdjust="spacing" textLength="170" x="372.5" y="709.2676">POST /fhir/Patient/_search</text><polygon fill="#181818" points="1118.5,754.6309,1108.5,758.6309,1118.5,762.6309,1114.5,758.6309" style="stroke:#181818;stroke-width:1.0;"/><line style="stroke:#181818;stroke-width:1.0;" x1="1112.5" x2="1499.5" y1="758.6309" y2="758.6309"/><text fill="#000000" font-family="sans-serif" font-size="13" font-weight="bold" lengthAdjust="spacing" textLength="18" x="1124.5" y="746.2334">11</text><text fill="#000000" font-family="sans-serif" font-size="13" lengthAdjust="spacing" textLength="150" x="1146.5" y="738.5781">introspect access token</text><text fill="#000000" font-family="sans-serif" font-size="13" lengthAdjust="spacing" textLength="304" x="1146.5" y="753.8887">POST /internal/auth/v2/accesstoken/introspect</text><polygon fill="#181818" points="1488.5,783.9414,1498.5,787.9414,1488.5,791.9414,1492.5,787.9414" style="stroke:#181818;stroke-width:1.0;"/><line style="stroke:#181818;stroke-width:1.0;stroke-dasharray:2.0,2.0;" x1="1102.5" x2="1494.5" y1="787.9414" y2="787.9414"/><text fill="#000000" font-family="sans-serif" font-size="13" font-weight="bold" lengthAdjust="spacing" textLength="18" x="1109.5" y="783.1992">12</text><text fill="#000000" font-family="sans-serif" font-size="13" lengthAdjust="spacing" textLength="347" x="1131.5" y="783.1992">valid token + GP_URA + USER{name,userRole,identifier}</text><line style="stroke:#181818;stroke-width:1.0;" x1="1510.5" x2="1552.5" y1="817.252" y2="817.252"/><line style="stroke:#181818;stroke-width:1.0;" x1="1552.5" x2="1552.5" y1="817.252" y2="830.252"/><line style="stroke:#181818;stroke-width:1.0;" x1="1511.5" x2="1552.5" y1="830.252" y2="830.252"/><polygon fill="#181818" points="1521.5,826.252,1511.5,830.252,1521.5,834.252,1517.5,830.252" style="stroke:#181818;stroke-width:1.0;"/><text fill="#000000" font-family="sans-serif" font-size="13" font-weight="bold" lengthAdjust="spacing" textLength="18" x="1517.5" y="812.5098">13</text><text fill="#000000" font-family="sans-serif" font-size="13" lengthAdjust="spacing" textLength="86" x="1539.5" y="812.5098">Authorization</text><polygon fill="#181818" points="354.5,855.5625,344.5,859.5625,354.5,863.5625,350.5,859.5625" style="stroke:#181818;stroke-width:1.0;"/><line style="stroke:#181818;stroke-width:1.0;stroke-dasharray:2.0,2.0;" x1="348.5" x2="1504.5" y1="859.5625" y2="859.5625"/><text fill="#000000" font-family="sans-serif" font-size="13" font-weight="bold" lengthAdjust="spacing" textLength="18" x="360.5" y="854.8203">14</text><text fill="#000000" font-family="sans-serif" font-size="13" lengthAdjust="spacing" textLength="184" x="382.5" y="854.8203">Patient Fhir resource (with id)</text><path d="M348,897.5625 L348,922.5625 L676,922.5625 L676,907.5625 L666,897.5625 L348,897.5625 " fill="#FEFFDD" style="stroke:#181818;stroke-width:0.5;"/><path d="M666,897.5625 L666,907.5625 L676,907.5625 L666,897.5625 " fill="#FEFFDD" style="stroke:#181818;stroke-width:0.5;"/><text fill="#000000" font-family="sans-serif" font-size="13" lengthAdjust="spacing" textLength="307" x="354" y="915.1309">Other resources are gathered based on patient id</text><path d="M310.5,934.873 L384.5,934.873 L384.5,942.1836 L374.5,952.1836 L310.5,952.1836 L310.5,934.873 " fill="#EEEEEE" style="stroke:#000000;stroke-width:1.5;"/><rect fill="none" height="192.1738" style="stroke:#000000;stroke-width:1.5;" width="1327" x="310.5" y="934.873"/><text fill="#000000" font-family="sans-serif" font-size="13" font-weight="bold" lengthAdjust="spacing" textLength="29" x="325.5" y="948.4414">loop</text><text fill="#000000" font-family="sans-serif" font-size="11" font-weight="bold" lengthAdjust="spacing" textLength="188" x="399.5" y="947.5078">[For each resource except Patient]</text><polygon fill="#181818" points="1488.5,969.4941,1498.5,973.4941,1488.5,977.4941,1492.5,973.4941" style="stroke:#181818;stroke-width:1.0;"/><line style="stroke:#181818;stroke-width:1.0;" x1="343.5" x2="1494.5" y1="973.4941" y2="973.4941"/><text fill="#000000" font-family="sans-serif" font-size="13" font-weight="bold" lengthAdjust="spacing" textLength="18" x="350.5" y="968.752">15</text><text fill="#000000" font-family="sans-serif" font-size="13" lengthAdjust="spacing" textLength="201" x="372.5" y="968.752">GET /fhir/{resource}?patent={id}</text><polygon fill="#181818" points="1118.5,1014.1152,1108.5,1018.1152,1118.5,1022.1152,1114.5,1018.1152" style="stroke:#181818;stroke-width:1.0;"/><line style="stroke:#181818;stroke-width:1.0;" x1="1112.5" x2="1499.5" y1="1018.1152" y2="1018.1152"/><text fill="#000000" font-family="sans-serif" font-size="13" font-weight="bold" lengthAdjust="spacing" textLength="18" x="1124.5" y="1005.7178">16</text><text fill="#000000" font-family="sans-serif" font-size="13" lengthAdjust="spacing" textLength="150" x="1146.5" y="998.0625">introspect access token</text><text fill="#000000" font-family="sans-serif" font-size="13" lengthAdjust="spacing" textLength="304" x="1146.5" y="1013.373">POST /internal/auth/v2/accesstoken/introspect</text><polygon fill="#181818" points="1488.5,1043.4258,1498.5,1047.4258,1488.5,1051.4258,1492.5,1047.4258" style="stroke:#181818;stroke-width:1.0;"/><line style="stroke:#181818;stroke-width:1.0;stroke-dasharray:2.0,2.0;" x1="1102.5" x2="1494.5" y1="1047.4258" y2="1047.4258"/><text fill="#000000" font-family="sans-serif" font-size="13" font-weight="bold" lengthAdjust="spacing" textLength="18" x="1109.5" y="1042.6836">17</text><text fill="#000000" font-family="sans-serif" font-size="13" lengthAdjust="spacing" textLength="347" x="1131.5" y="1042.6836">valid token + GP_URA + USER{name,userRole,identifier}</text><line style="stroke:#181818;stroke-width:1.0;" x1="1510.5" x2="1552.5" y1="1076.7363" y2="1076.7363"/><line style="stroke:#181818;stroke-width:1.0;" x1="1552.5" x2="1552.5" y1="1076.7363" y2="1089.7363"/><line style="stroke:#181818;stroke-width:1.0;" x1="1511.5" x2="1552.5" y1="1089.7363" y2="1089.7363"/><polygon fill="#181818" points="1521.5,1085.7363,1511.5,1089.7363,1521.5,1093.7363,1517.5,1089.7363" style="stroke:#181818;stroke-width:1.0;"/><text fill="#000000" font-family="sans-serif" font-size="13" font-weight="bold" lengthAdjust="spacing" textLength="18" x="1517.5" y="1071.9941">18</text><text fill="#000000" font-family="sans-serif" font-size="13" lengthAdjust="spacing" textLength="86" x="1539.5" y="1071.9941">Authorization</text><polygon fill="#181818" points="354.5,1115.0469,344.5,1119.0469,354.5,1123.0469,350.5,1119.0469" style="stroke:#181818;stroke-width:1.0;"/><line style="stroke:#181818;stroke-width:1.0;stroke-dasharray:2.0,2.0;" x1="348.5" x2="1504.5" y1="1119.0469" y2="1119.0469"/><text fill="#000000" font-family="sans-serif" font-size="13" font-weight="bold" lengthAdjust="spacing" textLength="18" x="360.5" y="1114.3047">19</text><text fill="#000000" font-family="sans-serif" font-size="13" lengthAdjust="spacing" textLength="85" x="382.5" y="1114.3047">Fhir Resource</text><polygon fill="#181818" points="54.5,1151.3574,44.5,1155.3574,54.5,1159.3574,50.5,1155.3574" style="stroke:#181818;stroke-width:1.0;"/><line style="stroke:#181818;stroke-width:1.0;" x1="48.5" x2="337.5" y1="1155.3574" y2="1155.3574"/><text fill="#000000" font-family="sans-serif" font-size="13" font-weight="bold" lengthAdjust="spacing" textLength="18" x="60.5" y="1150.6152">20</text><text fill="#000000" font-family="sans-serif" font-size="13" lengthAdjust="spacing" textLength="78" x="82.5" y="1150.6152">Display data</text><!--SRC=[jLLTJzim57tFhxYF8Dg58KtJAhe9Hc582AeMq1wGa9lSDbvJExETKYZzxxjs4ZUXxRQ7BGzLxTpFSywzINYCC9RIZEGYOBcH8f-DK0LwoaN659l1gLpqMHnpCO6Zmo0WE_XsEGnOPAI2EqssP6Tun3CcZ7jLFr_dHWFJ48a0HGmsIn7Z_lvsgw4MZUlpX2llQRD1-xDD0XsuaXFW8h07V_TL8JFeoWADMdCfMl0Wt9cBiGI166DC7IkNiJVBKlcCI7un2iDP2dlQO0OVzuEWsuKhYcOz6n6XsmtUr7BH1uK_SzJ6fL4pPgoXJTEdlnGQc74z4svyRckqI04zw_exC40jqpbwdzFXTGiOTK-UZtU34nSmAr_oCN3wrJ0Lyaa4zM2HwC0GcOeIvq7UjeUOwqZEKJqJ8XTe8EI2kXCi3VsRSFu-N59dSnxXvTdAnVGL4uTGFaBIMV59Oa2ENRhUWkm88PUKYiepC19CWi09OvoXpVMEClSbWJXA4MHcCTAT1m5jwjpaIW3Q8anYnJPMSkRyot8S3YcLxP3FU3HrZbTOQASjf5KoJorX17s569LdWvIW-GOYylNidSkym1ZsQ0IIbyTSfIqOa_Jilttd56CT1tVr-lgwWRh5bKKH2ONQdwAm3TyCRsjOsmpX_8XWpaS_C384SrXgfrsssYuYj5s4dHnG2yUs1ose1L51e24Xe0ZUHXLbWftyKOISr0tVFnn-gis2XNpxc6m7ygIMyu-eDMjm-YyrEsAQPfH89FtN0RRBe0C5dfQTi9oJyB7GNHCgjpggCkq1Ah282oLrHk0tKDf9LM7aRCArhu_jC-erEJudKLGadREKnoKT1xGmd3eFu6xO6om5cs6B2503cMABEup77DNAnwi1MSjITLK0SqBbIiLVtEvvOrDjc6gpk5j5woPND5fxJzpGrCORKdSOLhJ1JjvkQCJMuMYFAuG9ivV4esVJBwxOnKcbp6Zq552wP5qBBYBCJ5MeRwCXWOjUfO1bvRVwGk79eRlayMgJceOO_hSWVYUAVosCtUBuMu5iYiIT1YMmsoJeqRHVPikZExZ5VDmkTy4PrrdAdY5cXWKrN_lT-mK0]--></g></svg>